<svg xmlns="http://www.w3.org/2000/svg" viewBox="0 0 1752 444"><title>Artboard 1</title><circle cx="204.5" cy="224.5" r="190.5" style="fill:#e52222"/><path d="M372.12,315.57c-11.44,22-27.25,38.49-27.27,37.84-.15-3.24-1-13.68-5.91-23-7.09-13.44-19.33-20-37.41-20-61.23,0-210-1-212.07-1L36.17,272.73c2,0,203.92,1,265.36,1,17.84,0,33.34,4.3,46.05,12.78a69,69,0,0,1,24.54,28.18" style="fill:#fcfcfc"/><path d="M205.43,260.94a107.19,107.19,0,1,1,75.8-31.39A106.53,106.53,0,0,1,205.43,260.94Zm0-176.94a69.75,69.75,0,1,0,69.74,69.75A69.82,69.82,0,0,0,205.43,84Z" style="fill:#fcfcfc"/><text transform="translate(436.3 370.63)" style="font-size:350.44488525390625px;fill:#e52222;font-family:Montserrat-Regular, Montserrat">RE<tspan x="487.81" y="0" style="letter-spacing:-0.01799052508765278em">P</tspan><tspan x="733.12" y="0">ZIP</tspan></text></svg>