<svg xmlns="http://www.w3.org/2000/svg" viewBox="0 0 1080 1080"><title>iconArtboard 1</title><circle cx="539.5" cy="540.5" r="531.5" style="fill:#e52222"/><path d="M1007.17,794.59c-31.91,61.37-76,107.38-76.1,105.56-.41-9-2.79-38.15-16.47-64.09-19.79-37.52-53.93-55.76-104.38-55.76-170.84,0-586-2.87-591.67-2.81L69.87,675.05c5.67-.06,568.94,2.81,740.35,2.81,49.78,0,93,12,128.49,35.65,29,19.36,53.4,46.12,68.46,78.62" style="fill:#fcfcfc"/><path d="M542.1,642.18A299.08,299.08,0,0,1,330.62,131.62a299.08,299.08,0,1,1,423,423A297.11,297.11,0,0,1,542.1,642.18Zm0-493.67c-107.3,0-194.59,87.29-194.59,194.59S434.8,537.69,542.1,537.69,736.68,450.4,736.68,343.1,649.39,148.51,542.1,148.51Z" style="fill:#fcfcfc"/></svg>