<svg xmlns="http://www.w3.org/2000/svg" viewBox="0 0 1752 444"><title>on-redArtboard 1</title><circle cx="204.5" cy="224.5" r="190.5" style="fill:#fff"/><path d="M372.12,315.57c-11.44,22-27.25,38.49-27.27,37.84-.15-3.24-1-13.68-5.91-23-7.09-13.44-19.33-20-37.41-20-61.23,0-210-1-212.07-1L36.17,272.73c2,0,203.92,1,265.36,1,17.84,0,33.34,4.3,46.05,12.78a69,69,0,0,1,24.54,28.18" style="fill:#e52222"/><path d="M205.43,260.94a107.19,107.19,0,1,1,75.8-31.39A106.53,106.53,0,0,1,205.43,260.94Zm0-176.94a69.75,69.75,0,1,0,69.74,69.75A69.82,69.82,0,0,0,205.43,84Z" style="fill:#e52222"/><path d="M643.76,370.63l-56.07-78.85a178,178,0,0,1-19.63,1.05H502.18v77.8H476.25V125.32h91.81q47,0,73.6,22.43t26.63,61.68q0,28.73-14.54,48.53t-41.53,28.56l59.93,84.11Zm-20.68-116q19.27-16.11,19.28-45.2,0-29.79-19.28-45.74t-55.72-15.94H502.18v123h65.18Q603.81,270.75,623.08,254.63Z" style="fill:#fff"/><path d="M903.09,348.2v22.43H729.62V125.32H897.83v22.43H755.55V235H882.41v22.08H755.55V348.2Z" style="fill:#fff"/><path d="M1129.47,147.75q26.63,22.42,26.63,61.68t-26.63,61.5q-26.64,22.26-73.59,22.25H990v77.45H964.06V125.32h91.82Q1102.83,125.32,1129.47,147.75ZM1110.9,254.46q19.26-15.94,19.27-45,0-29.79-19.27-45.74t-55.72-15.94H990V270.4h65.19Q1091.62,270.4,1110.9,254.46Z" style="fill:#fff"/><path d="M1386.35,348.2v22.43H1185.19V352.76l162.61-205H1187.64V125.32h194.5v17.87l-162.26,205Z" style="fill:#fff"/><path d="M1437.51,125.32h25.93V370.63h-25.93Z" style="fill:#fff"/><path d="M1708.75,147.75q26.63,22.42,26.63,61.68t-26.63,61.5q-26.64,22.26-73.6,22.25h-65.88v77.45h-25.93V125.32h91.81Q1682.12,125.32,1708.75,147.75Zm-18.58,106.71q19.27-15.94,19.28-45,0-29.79-19.28-45.74t-55.72-15.94h-65.18V270.4h65.18Q1670.9,270.4,1690.17,254.46Z" style="fill:#fff"/></svg>